<?xml version="1.0" encoding="UTF-8" standalone="no"?>
<!DOCTYPE svg PUBLIC "-//W3C//DTD SVG 1.1//EN"
 "http://www.w3.org/Graphics/SVG/1.1/DTD/svg11.dtd">
<!-- Generated by graphviz version 12.2.1 (20241206.2353)
 -->
<!-- Title: methodology Pages: 1 -->
<svg width="1770pt" height="187pt"
 viewBox="0.00 0.00 1770.28 187.15" xmlns="http://www.w3.org/2000/svg" xmlns:xlink="http://www.w3.org/1999/xlink">
<g id="graph0" class="graph" transform="scale(1 1) rotate(0) translate(4 183.15)">
<title>methodology</title>
<polygon fill="white" stroke="none" points="-4,4 -4,-183.15 1766.28,-183.15 1766.28,4 -4,4"/>
<text text-anchor="middle" x="881.14" y="-160.9" font-family="Helvetica,sans-Serif" font-size="15.00">Methodology: Multimodal Correlation&#45;Aware Pedestrian Attribute Recognition</text>
<!-- IN -->
<g id="node1" class="node">
<title>IN</title>
<path fill="#eeeeee" stroke="black" d="M98.67,-65.4C98.67,-65.4 12,-65.4 12,-65.4 6,-65.4 0,-59.4 0,-53.4 0,-53.4 0,-39 0,-39 0,-33 6,-27 12,-27 12,-27 98.67,-27 98.67,-27 104.67,-27 110.67,-33 110.67,-39 110.67,-39 110.67,-53.4 110.67,-53.4 110.67,-59.4 104.67,-65.4 98.67,-65.4"/>
<text text-anchor="middle" x="55.34" y="-47.75" font-family="Helvetica,sans-Serif" font-size="11.00">Input:</text>
<text text-anchor="middle" x="55.34" y="-35.75" font-family="Helvetica,sans-Serif" font-size="11.00">Pedestrian Image</text>
</g>
<!-- PRE -->
<g id="node2" class="node">
<title>PRE</title>
<path fill="#fff4e5" stroke="black" d="M324.34,-65.4C324.34,-65.4 159.67,-65.4 159.67,-65.4 153.67,-65.4 147.67,-59.4 147.67,-53.4 147.67,-53.4 147.67,-39 147.67,-39 147.67,-33 153.67,-27 159.67,-27 159.67,-27 324.34,-27 324.34,-27 330.34,-27 336.34,-33 336.34,-39 336.34,-39 336.34,-53.4 336.34,-53.4 336.34,-59.4 330.34,-65.4 324.34,-65.4"/>
<text text-anchor="middle" x="242.01" y="-47.75" font-family="Helvetica,sans-Serif" font-size="11.00">Preprocessing</text>
<text text-anchor="middle" x="242.01" y="-35.75" font-family="Helvetica,sans-Serif" font-size="11.00">square&#45;pad, resize 224, normalize</text>
</g>
<!-- IN&#45;&gt;PRE -->
<g id="edge1" class="edge">
<title>IN&#45;&gt;PRE</title>
<path fill="none" stroke="#555555" d="M110.74,-46.2C118.81,-46.2 127.34,-46.2 136.02,-46.2"/>
<polygon fill="#555555" stroke="#555555" points="135.98,-49.7 145.98,-46.2 135.98,-42.7 135.98,-49.7"/>
</g>
<!-- IMG -->
<g id="node3" class="node">
<title>IMG</title>
<path fill="#d2e3fc" stroke="#1a73e8" stroke-width="2" d="M505.76,-94.4C505.76,-94.4 385.34,-94.4 385.34,-94.4 379.34,-94.4 373.34,-88.4 373.34,-82.4 373.34,-82.4 373.34,-68 373.34,-68 373.34,-62 379.34,-56 385.34,-56 385.34,-56 505.76,-56 505.76,-56 511.76,-56 517.76,-62 517.76,-68 517.76,-68 517.76,-82.4 517.76,-82.4 517.76,-88.4 511.76,-94.4 505.76,-94.4"/>
<text text-anchor="middle" x="445.55" y="-76.75" font-family="Helvetica,sans-Serif" font-size="11.00">SigLIP&#45;2 Image Encoder</text>
<text text-anchor="middle" x="445.55" y="-64.75" font-family="Helvetica,sans-Serif" font-size="11.00">(frozen)</text>
</g>
<!-- PRE&#45;&gt;IMG -->
<g id="edge2" class="edge">
<title>PRE&#45;&gt;IMG</title>
<path fill="none" stroke="#555555" d="M336.7,-59.68C344.87,-60.86 353.11,-62.04 361.19,-63.21"/>
<polygon fill="#555555" stroke="#555555" points="360.6,-66.66 371,-64.62 361.6,-59.73 360.6,-66.66"/>
</g>
<!-- TXT -->
<g id="node4" class="node">
<title>TXT</title>
<path fill="#d2e3fc" stroke="#1a73e8" stroke-width="2" d="M500.51,-38.4C500.51,-38.4 390.59,-38.4 390.59,-38.4 384.59,-38.4 378.59,-32.4 378.59,-26.4 378.59,-26.4 378.59,-12 378.59,-12 378.59,-6 384.59,0 390.59,0 390.59,0 500.51,0 500.51,0 506.51,0 512.51,-6 512.51,-12 512.51,-12 512.51,-26.4 512.51,-26.4 512.51,-32.4 506.51,-38.4 500.51,-38.4"/>
<text text-anchor="middle" x="445.55" y="-20.75" font-family="Helvetica,sans-Serif" font-size="11.00">SigLIP&#45;2 Text Encoder</text>
<text text-anchor="middle" x="445.55" y="-8.75" font-family="Helvetica,sans-Serif" font-size="11.00">(frozen, cached)</text>
</g>
<!-- PRE&#45;&gt;TXT -->
<g id="edge4" class="edge">
<title>PRE&#45;&gt;TXT</title>
<path fill="none" stroke="#555555" d="M336.7,-33.65C346.67,-32.31 356.74,-30.96 366.51,-29.66"/>
<polygon fill="#555555" stroke="#555555" points="366.86,-33.14 376.31,-28.34 365.93,-26.2 366.86,-33.14"/>
</g>
<!-- VF -->
<g id="node5" class="node">
<title>VF</title>
<path fill="#e6f4ea" stroke="black" d="M670.43,-101.2C670.43,-101.2 593.51,-101.2 593.51,-101.2 587.51,-101.2 581.51,-95.2 581.51,-89.2 581.51,-89.2 581.51,-77.2 581.51,-77.2 581.51,-71.2 587.51,-65.2 593.51,-65.2 593.51,-65.2 670.43,-65.2 670.43,-65.2 676.43,-65.2 682.43,-71.2 682.43,-77.2 682.43,-77.2 682.43,-89.2 682.43,-89.2 682.43,-95.2 676.43,-101.2 670.43,-101.2"/>
<text text-anchor="middle" x="631.97" y="-78.75" font-family="Helvetica,sans-Serif" font-size="11.00">Visual Features</text>
</g>
<!-- IMG&#45;&gt;VF -->
<g id="edge3" class="edge">
<title>IMG&#45;&gt;VF</title>
<path fill="none" stroke="#555555" d="M518.64,-78.33C535.63,-79.06 553.58,-79.84 570.03,-80.56"/>
<polygon fill="#555555" stroke="#555555" points="569.49,-84.04 579.63,-80.97 569.79,-77.04 569.49,-84.04"/>
</g>
<!-- AE -->
<g id="node6" class="node">
<title>AE</title>
<path fill="#e6f4ea" stroke="black" d="M662.93,-46.4C662.93,-46.4 601.01,-46.4 601.01,-46.4 595.01,-46.4 589.01,-40.4 589.01,-34.4 589.01,-34.4 589.01,-20 589.01,-20 589.01,-14 595.01,-8 601.01,-8 601.01,-8 662.93,-8 662.93,-8 668.93,-8 674.93,-14 674.93,-20 674.93,-20 674.93,-34.4 674.93,-34.4 674.93,-40.4 668.93,-46.4 662.93,-46.4"/>
<text text-anchor="middle" x="631.97" y="-28.75" font-family="Helvetica,sans-Serif" font-size="11.00">26 Attribute</text>
<text text-anchor="middle" x="631.97" y="-16.75" font-family="Helvetica,sans-Serif" font-size="11.00">Embeddings</text>
</g>
<!-- TXT&#45;&gt;AE -->
<g id="edge5" class="edge">
<title>TXT&#45;&gt;AE</title>
<path fill="none" stroke="#555555" d="M513.39,-22.1C534.42,-23.01 557.35,-24.01 577.33,-24.87"/>
<polygon fill="#555555" stroke="#555555" points="577.07,-28.37 587.21,-25.3 577.37,-21.37 577.07,-28.37"/>
</g>
<!-- ORI -->
<g id="node7" class="node">
<title>ORI</title>
<path fill="#fde7f3" stroke="#c2185b" stroke-width="2" d="M491.14,-151.4C491.14,-151.4 399.97,-151.4 399.97,-151.4 393.97,-151.4 387.97,-145.4 387.97,-139.4 387.97,-139.4 387.97,-125 387.97,-125 387.97,-119 393.97,-113 399.97,-113 399.97,-113 491.14,-113 491.14,-113 497.14,-113 503.14,-119 503.14,-125 503.14,-125 503.14,-139.4 503.14,-139.4 503.14,-145.4 497.14,-151.4 491.14,-151.4"/>
<text text-anchor="middle" x="445.55" y="-133.75" font-family="Helvetica,sans-Serif" font-size="11.00">Orientation Head</text>
<text text-anchor="middle" x="445.55" y="-121.75" font-family="Helvetica,sans-Serif" font-size="11.00">Front / Side / Back</text>
</g>
<!-- VF&#45;&gt;ORI -->
<g id="edge6" class="edge">
<title>VF&#45;&gt;ORI</title>
<path fill="none" stroke="#555555" d="M581.06,-96.43C566.46,-100.3 550.47,-104.54 535.76,-108.45 529.05,-110.23 522.06,-112.09 515.07,-113.95"/>
<polygon fill="#555555" stroke="#555555" points="514.36,-110.52 505.6,-116.47 516.16,-117.28 514.36,-110.52"/>
<text text-anchor="middle" x="549.64" y="-109.65" font-family="Helvetica,sans-Serif" font-size="9.00"> orient </text>
</g>
<!-- CMAA -->
<g id="node8" class="node">
<title>CMAA</title>
<path fill="#fff2cc" stroke="#f1c232" stroke-width="2" d="M904.85,-102.4C904.85,-102.4 753.68,-102.4 753.68,-102.4 747.68,-102.4 741.68,-96.4 741.68,-90.4 741.68,-90.4 741.68,-76 741.68,-76 741.68,-70 747.68,-64 753.68,-64 753.68,-64 904.85,-64 904.85,-64 910.85,-64 916.85,-70 916.85,-76 916.85,-76 916.85,-90.4 916.85,-90.4 916.85,-96.4 910.85,-102.4 904.85,-102.4"/>
<text text-anchor="middle" x="829.27" y="-84.75" font-family="Helvetica,sans-Serif" font-size="11.00">CMAA</text>
<text text-anchor="middle" x="829.27" y="-72.75" font-family="Helvetica,sans-Serif" font-size="11.00">Cross&#45;Modal Attribute Attention</text>
</g>
<!-- VF&#45;&gt;CMAA -->
<g id="edge7" class="edge">
<title>VF&#45;&gt;CMAA</title>
<path fill="none" stroke="#555555" d="M682.76,-83.2C697.17,-83.2 713.44,-83.2 729.73,-83.2"/>
<polygon fill="#555555" stroke="#555555" points="729.49,-86.7 739.49,-83.2 729.49,-79.7 729.49,-86.7"/>
</g>
<!-- AE&#45;&gt;CMAA -->
<g id="edge8" class="edge">
<title>AE&#45;&gt;CMAA</title>
<path fill="none" stroke="#555555" d="M675.35,-39.35C696.36,-45.38 722.46,-52.86 747.11,-59.93"/>
<polygon fill="#555555" stroke="#555555" points="745.91,-63.23 756.49,-62.62 747.84,-56.5 745.91,-63.23"/>
</g>
<!-- OCFR -->
<g id="node9" class="node">
<title>OCFR</title>
<path fill="#cfe2f3" stroke="#3d85c6" stroke-width="2" d="M1122.27,-127.4C1122.27,-127.4 965.85,-127.4 965.85,-127.4 959.85,-127.4 953.85,-121.4 953.85,-115.4 953.85,-115.4 953.85,-101 953.85,-101 953.85,-95 959.85,-89 965.85,-89 965.85,-89 1122.27,-89 1122.27,-89 1128.27,-89 1134.27,-95 1134.27,-101 1134.27,-101 1134.27,-115.4 1134.27,-115.4 1134.27,-121.4 1128.27,-127.4 1122.27,-127.4"/>
<text text-anchor="middle" x="1044.06" y="-109.75" font-family="Helvetica,sans-Serif" font-size="11.00">OCFR</text>
<text text-anchor="middle" x="1044.06" y="-97.75" font-family="Helvetica,sans-Serif" font-size="11.00">Orientation&#45;Conditioned Routing</text>
</g>
<!-- ORI&#45;&gt;OCFR -->
<g id="edge10" class="edge">
<title>ORI&#45;&gt;OCFR</title>
<path fill="none" stroke="#555555" d="M504.02,-129.89C605.06,-125.82 815.77,-117.34 941.73,-112.28"/>
<polygon fill="#555555" stroke="#555555" points="941.54,-115.79 951.39,-111.89 941.26,-108.79 941.54,-115.79"/>
<text text-anchor="middle" x="712.06" y="-123.13" font-family="Helvetica,sans-Serif" font-size="9.00"> view </text>
</g>
<!-- CMAA&#45;&gt;OCFR -->
<g id="edge9" class="edge">
<title>CMAA&#45;&gt;OCFR</title>
<path fill="none" stroke="#555555" d="M917.74,-93.48C925.69,-94.41 933.78,-95.36 941.83,-96.31"/>
<polygon fill="#555555" stroke="#555555" points="941.33,-99.77 951.67,-97.46 942.14,-92.82 941.33,-99.77"/>
</g>
<!-- DACG -->
<g id="node10" class="node">
<title>DACG</title>
<path fill="#e6d6f5" stroke="#8e44ad" stroke-width="2" d="M1371.94,-127.4C1371.94,-127.4 1183.27,-127.4 1183.27,-127.4 1177.27,-127.4 1171.27,-121.4 1171.27,-115.4 1171.27,-115.4 1171.27,-101 1171.27,-101 1171.27,-95 1177.27,-89 1183.27,-89 1183.27,-89 1371.94,-89 1371.94,-89 1377.94,-89 1383.94,-95 1383.94,-101 1383.94,-101 1383.94,-115.4 1383.94,-115.4 1383.94,-121.4 1377.94,-127.4 1371.94,-127.4"/>
<text text-anchor="middle" x="1277.61" y="-109.75" font-family="Helvetica,sans-Serif" font-size="11.00">Hybrid DACG</text>
<text text-anchor="middle" x="1277.61" y="-97.75" font-family="Helvetica,sans-Serif" font-size="11.00">Static prior + dynamic per&#45;image graph</text>
</g>
<!-- OCFR&#45;&gt;DACG -->
<g id="edge11" class="edge">
<title>OCFR&#45;&gt;DACG</title>
<path fill="none" stroke="#555555" d="M1135.24,-108.2C1143.1,-108.2 1151.12,-108.2 1159.15,-108.2"/>
<polygon fill="#555555" stroke="#555555" points="1158.98,-111.7 1168.98,-108.2 1158.98,-104.7 1158.98,-111.7"/>
</g>
<!-- CLS -->
<g id="node11" class="node">
<title>CLS</title>
<path fill="#f4cccc" stroke="#cc4125" stroke-width="2" d="M1522.61,-127.4C1522.61,-127.4 1432.94,-127.4 1432.94,-127.4 1426.94,-127.4 1420.94,-121.4 1420.94,-115.4 1420.94,-115.4 1420.94,-101 1420.94,-101 1420.94,-95 1426.94,-89 1432.94,-89 1432.94,-89 1522.61,-89 1522.61,-89 1528.61,-89 1534.61,-95 1534.61,-101 1534.61,-101 1534.61,-115.4 1534.61,-115.4 1534.61,-121.4 1528.61,-127.4 1522.61,-127.4"/>
<text text-anchor="middle" x="1477.78" y="-109.75" font-family="Helvetica,sans-Serif" font-size="11.00">Attribute Classifier</text>
<text text-anchor="middle" x="1477.78" y="-97.75" font-family="Helvetica,sans-Serif" font-size="11.00">+ Sigmoid</text>
</g>
<!-- DACG&#45;&gt;CLS -->
<g id="edge12" class="edge">
<title>DACG&#45;&gt;CLS</title>
<path fill="none" stroke="#555555" d="M1384.65,-108.2C1392.88,-108.2 1401.03,-108.2 1408.9,-108.2"/>
<polygon fill="#555555" stroke="#555555" points="1408.68,-111.7 1418.68,-108.2 1408.68,-104.7 1408.68,-111.7"/>
</g>
<!-- OUT -->
<g id="node12" class="node">
<title>OUT</title>
<path fill="#d9ead3" stroke="#6aa84f" stroke-width="2" d="M1718.41,-155.4C1718.41,-155.4 1656.49,-155.4 1656.49,-155.4 1650.49,-155.4 1644.49,-149.4 1644.49,-143.4 1644.49,-143.4 1644.49,-129 1644.49,-129 1644.49,-123 1650.49,-117 1656.49,-117 1656.49,-117 1718.41,-117 1718.41,-117 1724.41,-117 1730.41,-123 1730.41,-129 1730.41,-129 1730.41,-143.4 1730.41,-143.4 1730.41,-149.4 1724.41,-155.4 1718.41,-155.4"/>
<text text-anchor="middle" x="1687.45" y="-137.75" font-family="Helvetica,sans-Serif" font-size="11.00">26 Attributes</text>
<text text-anchor="middle" x="1687.45" y="-125.75" font-family="Helvetica,sans-Serif" font-size="11.00">(Multi&#45;label)</text>
</g>
<!-- CLS&#45;&gt;OUT -->
<g id="edge13" class="edge">
<title>CLS&#45;&gt;OUT</title>
<path fill="none" stroke="#555555" d="M1535.52,-115.85C1565.76,-119.93 1602.77,-124.92 1632.57,-128.94"/>
<polygon fill="#555555" stroke="#555555" points="1631.73,-132.35 1642.1,-130.22 1632.66,-125.42 1631.73,-132.35"/>
</g>
<!-- LOSS -->
<g id="node13" class="node">
<title>LOSS</title>
<path fill="#fde0dc" stroke="#cc0000" stroke-dasharray="5,2" d="M1750.28,-99.4C1750.28,-99.4 1624.61,-99.4 1624.61,-99.4 1618.61,-99.4 1612.61,-93.4 1612.61,-87.4 1612.61,-87.4 1612.61,-73 1612.61,-73 1612.61,-67 1618.61,-61 1624.61,-61 1624.61,-61 1750.28,-61 1750.28,-61 1756.28,-61 1762.28,-67 1762.28,-73 1762.28,-73 1762.28,-87.4 1762.28,-87.4 1762.28,-93.4 1756.28,-99.4 1750.28,-99.4"/>
<text text-anchor="middle" x="1687.45" y="-81.75" font-family="Helvetica,sans-Serif" font-size="11.00" fill="#cc0000">Training&#45;only Loss</text>
<text text-anchor="middle" x="1687.45" y="-69.75" font-family="Helvetica,sans-Serif" font-size="11.00" fill="#cc0000">Weighted BCE + CCLoss</text>
</g>
<!-- CLS&#45;&gt;LOSS -->
<g id="edge14" class="edge">
<title>CLS&#45;&gt;LOSS</title>
<path fill="none" stroke="#cc0000" stroke-dasharray="5,2" d="M1535.52,-100.55C1555.67,-97.83 1578.82,-94.71 1600.83,-91.74"/>
<polygon fill="#cc0000" stroke="#cc0000" points="1601.28,-95.21 1610.72,-90.41 1600.34,-88.28 1601.28,-95.21"/>
<text text-anchor="middle" x="1573.61" y="-98.73" font-family="Helvetica,sans-Serif" font-size="9.00"> train only </text>
</g>
</g>
</svg>
